<?xml version="1.0" encoding="utf-8"?>
<!-- Generator: Adobe Illustrator 15.0.2, SVG Export Plug-In . SVG Version: 6.00 Build 0)  -->
<!DOCTYPE svg PUBLIC "-//W3C//DTD SVG 1.1//EN" "http://www.w3.org/Graphics/SVG/1.1/DTD/svg11.dtd">
<svg version="1.1" id="Layer_1" xmlns="http://www.w3.org/2000/svg" xmlns:xlink="http://www.w3.org/1999/xlink" x="0px" y="0px"
	 width="150px" height="150px" viewBox="0 0 400 400" enable-background="new 0 0 400 400" xml:space="preserve">
<circle fill="rgb(243,115,0)" cx="200.031" cy="200" r="200"/>
<g enable-background="new    ">
	<path fill="#FFFFFF" d="M167.095,307.473c0.913,1.065,2.148,1.598,3.708,1.598c1.559,0,2.796-0.531,3.708-1.598
		c0.913-1.063,1.369-2.51,1.369-4.336v-11.039h3.366v11.182c0,2.873-0.79,5.084-2.368,6.634c-1.579,1.55-3.604,2.323-6.076,2.323
		c-2.472,0-4.498-0.773-6.076-2.323c-1.579-1.55-2.368-3.761-2.368-6.634v-11.182h3.366v11.039
		C165.726,304.963,166.182,306.408,167.095,307.473z"/>
	<path fill="#FFFFFF" d="M190.557,294.723c-0.98,0-1.783,0.199-2.411,0.6s-0.941,1.003-0.941,1.812c0,0.81,0.314,1.427,0.941,1.854
		c0.627,0.429,1.963,0.89,4.008,1.384c2.044,0.495,3.584,1.188,4.621,2.082c1.037,0.896,1.555,2.211,1.555,3.95
		c0,1.74-0.656,3.152-1.968,4.236s-3.033,1.627-5.163,1.627c-3.119,0-5.886-1.074-8.301-3.225l2.111-2.539
		c2.016,1.75,4.107,2.625,6.275,2.625c1.084,0,1.944-0.232,2.582-0.699c0.638-0.466,0.956-1.084,0.956-1.854
		s-0.299-1.369-0.898-1.797c-0.599-0.428-1.631-0.817-3.095-1.17c-1.465-0.353-2.577-0.676-3.338-0.971
		c-0.761-0.294-1.436-0.68-2.025-1.154c-1.18-0.895-1.769-2.264-1.769-4.107s0.67-3.268,2.011-4.266s3-1.496,4.978-1.496
		c1.273,0,2.539,0.209,3.793,0.627c1.255,0.419,2.339,1.009,3.252,1.769l-1.797,2.539c-0.59-0.532-1.389-0.97-2.396-1.312
		C192.53,294.895,191.536,294.723,190.557,294.723z"/>
	<path fill="#FFFFFF" d="M216.5,292.098v3.166h-10.641v5.277h9.557v2.995h-9.557v5.335h10.982v3.166h-14.349v-19.939H216.5
		L216.5,292.098z"/>
	<path fill="#FFFFFF" d="M237.066,298.573c0,3.29-1.437,5.362-4.308,6.219l5.222,7.245h-4.279l-4.764-6.703h-4.422v6.703h-3.365
		v-19.939h7.416c3.043,0,5.221,0.514,6.533,1.541C236.412,294.665,237.066,296.311,237.066,298.573z M232.589,301.396
		c0.685-0.59,1.026-1.535,1.026-2.838s-0.352-2.197-1.055-2.683c-0.703-0.483-1.959-0.728-3.767-0.728h-4.278v7.132h4.192
		C230.611,302.281,231.904,301.986,232.589,301.396z"/>
</g>
<path id="user-icon" fill="#FFFFFF" d="M265.517,203.898c-25.731-5.937-49.688-11.132-38.087-33.005
	c35.312-66.575,9.359-102.178-27.929-102.178c-38.025,0-63.339,36.97-27.93,102.178c11.949,22.005-12.907,27.198-38.087,33.005
	c-25.724,5.934-23.745,19.496-23.745,44.104h179.522C289.261,223.395,291.239,209.832,265.517,203.898z"/>
</svg>
